<?xml version="1.0" encoding="UTF-8" standalone="no"?>
<svg width="25px" height="21px" viewBox="0 0 25 21" version="1.1" xmlns="http://www.w3.org/2000/svg" xmlns:xlink="http://www.w3.org/1999/xlink">
    <!-- Generator: Sketch 40.2 (33826) - http://www.bohemiancoding.com/sketch -->
    <title>boxxx</title>
    <desc>Created with Sketch.</desc>
    <defs>
        <polygon id="path-1" points="12.07515 20.9111 24.15 20.9111 24.15 0.0001 12.07515 0.0001 0.0003 0.0001 0.0003 20.9111"></polygon>
    </defs>
    <g id="Page-1" stroke="none" stroke-width="1" fill="none" fill-rule="evenodd">
        <g id="A4-Copy" transform="translate(-24.000000, -340.000000)">
            <g id="boxxx" transform="translate(24.000000, 340.000000)">
                <mask id="mask-2" fill="white">
                    <use xlink:href="#path-1"></use>
                </mask>
                <g id="Clip-2"></g>
                <path d="M8.2363,1.2871 C8.2363,1.1511 8.4243,1.0001 8.6763,1.0001 L15.4813,1.0141 C15.6123,1.0141 15.7373,1.0561 15.8243,1.1291 C15.8603,1.1591 15.9213,1.2231 15.9213,1.3031 L15.9153,4.5991 L8.2293,4.5991 L8.2363,1.2871 Z M18.9113,5.5991 C19.1393,7.8461 20.9053,9.6161 23.1503,9.8501 L23.1503,15.6741 C20.9083,15.9051 19.1433,17.6701 18.9093,19.9111 L5.1983,19.9111 C4.9673,17.6831 3.2223,15.9261 1.0003,15.6761 L1.0003,9.8441 C3.2283,9.5961 4.9763,7.8331 5.2033,5.5991 L7.7373,5.5991 L16.9133,5.6161 L16.9133,5.5991 L18.9113,5.5991 Z M16.9153,4.5991 L16.9213,1.3051 C16.9223,0.9501 16.7573,0.6071 16.4673,0.3641 C16.2013,0.1391 15.8503,0.0151 15.4833,0.0141 L8.6753,0.0001 C7.8833,0.0001 7.2383,0.5761 7.2363,1.2851 L7.2293,4.5991 L0.0003,4.5991 L0.0003,20.9111 L24.1503,20.9111 L24.1503,4.5991 L16.9153,4.5991 Z" id="Fill-1" fill="#407FA0" mask="url(#mask-2)"></path>
            </g>
        </g>
    </g>
</svg>