<?xml version="1.0" encoding="UTF-8" standalone="no"?>
<svg width="28px" height="18px" viewBox="0 0 28 18" version="1.1" xmlns="http://www.w3.org/2000/svg" xmlns:xlink="http://www.w3.org/1999/xlink">
    <!-- Generator: Sketch 40.2 (33826) - http://www.bohemiancoding.com/sketch -->
    <title>money</title>
    <desc>Created with Sketch.</desc>
    <defs>
        <polygon id="path-1" points="0.0003 14 23.1723 14 23.1723 0.6554 0.0003 0.6554"></polygon>
    </defs>
    <g id="Page-1" stroke="none" stroke-width="1" fill="none" fill-rule="evenodd">
        <g id="A4-Copy" transform="translate(-338.000000, -430.000000)">
            <g id="money" transform="translate(338.000000, 430.000000)">
                <polygon id="Fill-1" fill="#333332" points="4.6251 -0.0002 4.6251 2.7498 5.6251 2.7498 5.6251 0.9998 26.7811 0.9998 26.7811 12.3438 24.7401 12.3438 24.7401 13.3438 27.7811 13.3438 27.7811 -0.0002"></polygon>
                <g id="Group-7" transform="translate(0.000000, 3.148400)">
                    <g id="Group-4">
                        <mask id="mask-2" fill="white">
                            <use xlink:href="#path-1"></use>
                        </mask>
                        <g id="Clip-3"></g>
                        <path d="M22.1563,9.8734 C20.5363,10.1034 19.2633,11.3794 19.0403,13.0004 L4.1323,13.0004 C3.9073,11.3744 2.6273,10.0954 1.0003,9.8714 L1.0003,4.7834 C2.6273,4.5594 3.9073,3.2804 4.1323,1.6554 L19.0403,1.6554 C19.2633,3.2754 20.5363,4.5524 22.1563,4.7814 L22.1563,9.8734 Z M18.9893,0.6554 L4.1823,0.6554 L0.0003,0.6554 L0.0003,4.8344 L0.0003,9.8214 L0.0003,14.0004 L4.1823,14.0004 L18.9893,14.0004 L23.1563,14.0004 L23.1723,14.0004 L23.1723,9.8214 L23.1563,9.8214 L23.1563,4.8344 L23.1723,4.8344 L23.1723,0.6554 L23.1563,0.6554 L18.9893,0.6554 Z" id="Fill-2" fill="#333332" mask="url(#mask-2)"></path>
                    </g>
                    <path d="M11.8389,4.791 C10.4389,4.791 9.2989,5.929 9.2989,7.327 C9.2989,8.727 10.4389,9.864 11.8389,9.864 C13.2389,9.864 14.3779,8.727 14.3779,7.327 C14.3779,5.929 13.2389,4.791 11.8389,4.791" id="Fill-5" fill="#333332"></path>
                </g>
            </g>
        </g>
    </g>
</svg>