<?xml version="1.0" encoding="UTF-8" standalone="no"?>
<svg width="22px" height="27px" viewBox="0 0 22 27" version="1.1" xmlns="http://www.w3.org/2000/svg" xmlns:xlink="http://www.w3.org/1999/xlink">
    <!-- Generator: Sketch 40.2 (33826) - http://www.bohemiancoding.com/sketch -->
    <title>shortt</title>
    <desc>Created with Sketch.</desc>
    <defs></defs>
    <g id="Page-1" stroke="none" stroke-width="1" fill="none" fill-rule="evenodd">
        <g id="A4-Copy" transform="translate(-533.000000, -20.000000)" fill="#407FA0">
            <g id="shortt" transform="translate(533.000000, 19.000000)">
                <g id="Group-3" transform="translate(0.000000, 0.919900)">
                    <path d="M20.3711,24.3809 C20.3711,25.2739 19.6441,25.9999 18.7521,25.9999 L11.1871,25.9999 L11.2341,5.4559 L16.9781,7.7379 L17.1371,7.2189 C17.3661,6.4639 17.5001,5.7469 17.5691,5.0919 L18.5641,5.4239 C19.7641,5.8359 20.3711,6.4439 20.3711,7.2319 L20.3711,24.3809 Z M1.0001,24.3809 L1.0001,7.2319 C1.0001,6.7209 1.2081,6.0689 2.8061,5.5579 L3.8781,5.2709 C3.9511,5.8779 4.0741,6.5289 4.2831,7.2189 L4.4411,7.7379 L10.2341,5.4379 L10.1871,25.9999 L2.6191,25.9999 C1.7261,25.9999 1.0001,25.2739 1.0001,24.3809 L1.0001,24.3809 Z M4.9321,2.4349 C5.7851,2.8959 7.6251,3.9269 9.1561,4.7899 L5.0951,6.4019 C4.6461,4.5989 4.7901,3.1369 4.9321,2.4349 L4.9321,2.4349 Z M15.6371,1.7569 C14.8301,2.1939 13.4151,2.9879 10.8631,4.4339 L10.7101,4.5199 L10.5581,4.4339 C8.1211,3.0539 6.7211,2.2669 5.8961,1.8179 C6.9271,1.4929 8.6901,1.0799 11.0351,1.0799 C13.2971,1.0799 14.7881,1.4529 15.6371,1.7569 L15.6371,1.7569 Z M16.3251,6.4029 L12.2651,4.7899 C13.7961,3.9269 15.6361,2.8959 16.4891,2.4349 C16.6311,3.1369 16.7731,4.5989 16.3251,6.4029 L16.3251,6.4029 Z M18.8861,4.4769 L17.6241,4.0559 C17.6341,2.6439 17.3551,1.6659 17.2101,1.4589 L17.0491,1.2409 L16.9391,1.2359 C16.4751,0.9729 14.6351,0.0799 11.0351,0.0799 C7.4681,0.0799 5.1761,0.9699 4.5771,1.2329 L4.3511,1.2589 L4.2111,1.4579 C4.0591,1.6749 3.7601,2.7349 3.8001,4.2559 L2.5241,4.5979 C1.9001,4.7969 0.0001,5.4039 0.0001,7.2319 L0.0001,24.3809 C0.0001,25.8249 1.1751,26.9999 2.6191,26.9999 L18.7521,26.9999 C20.1961,26.9999 21.3711,25.8249 21.3711,24.3809 L21.3711,7.2319 C21.3711,6.3649 20.9401,5.1839 18.8861,4.4769 L18.8861,4.4769 Z" id="Fill-1"></path>
                </g>
                <polygon id="Fill-6" points="2.912 14.2499 8.112 14.2499 8.112 13.2499 2.912 13.2499"></polygon>
            </g>
        </g>
    </g>
</svg>