<?xml version="1.0" encoding="UTF-8" standalone="no"?>
<svg width="27px" height="26px" viewBox="0 0 27 26" version="1.1" xmlns="http://www.w3.org/2000/svg" xmlns:xlink="http://www.w3.org/1999/xlink">
    <!-- Generator: Sketch 40.2 (33826) - http://www.bohemiancoding.com/sketch -->
    <title>user</title>
    <desc>Created with Sketch.</desc>
    <defs>
        <polygon id="path-1" points="0.0005 25.7344 26.069 25.7344 26.069 0.0004 0.0005 0.0004 0.0005 25.7344"></polygon>
    </defs>
    <g id="Page-1" stroke="none" stroke-width="1" fill="none" fill-rule="evenodd">
        <g id="A4-Copy" transform="translate(-320.000000, -773.000000)">
            <g id="user" transform="translate(320.000000, 773.000000)">
                <mask id="mask-2" fill="white">
                    <use xlink:href="#path-1"></use>
                </mask>
                <g id="Clip-2"></g>
                <path d="M1.2295,23.3916 C2.8785,23.7446 7.9825,24.7346 13.2495,24.7346 C18.4685,24.7346 23.2445,23.7616 24.8305,23.4026 C24.5315,22.9036 23.9155,22.2106 23.2455,21.8986 C22.7505,21.6676 21.6835,21.2516 20.6525,20.8506 C19.5465,20.4196 18.5015,20.0136 18.0165,19.7826 C17.0965,19.3426 15.7055,18.6796 15.7875,16.6816 L15.7965,16.4636 L15.9625,16.3226 C15.9795,16.3066 17.7105,14.8196 18.6465,13.1656 C20.0635,10.6656 19.7385,4.6676 17.5915,2.9896 C17.4595,2.8866 17.2195,2.7896 17.0985,2.7526 L16.9055,2.6946 L16.8065,2.5176 C16.4605,1.8986 15.6825,1.3956 14.7235,1.1726 C14.4475,1.1086 13.8755,0.9996 13.1445,0.9996 C11.9635,0.9996 10.2555,1.2836 8.8235,2.6306 C6.6085,4.7126 6.4475,9.5046 7.1825,12.0206 C7.7835,14.0716 10.1065,16.3196 10.1295,16.3416 L10.2745,16.4806 L10.2835,16.6816 C10.3605,18.5536 9.0475,19.1986 7.9935,19.7166 L7.8665,19.7796 C7.3825,20.0186 6.3205,20.4516 5.1965,20.9086 C4.2845,21.2806 3.3705,21.6526 2.8195,21.9016 C2.0905,22.2296 1.5075,22.8956 1.2295,23.3916 M13.2495,25.7346 C6.7515,25.7346 0.5075,24.2556 0.4455,24.2416 L0.0005,24.1346 L0.0665,23.6816 C0.1895,22.8536 1.1805,21.5436 2.4075,20.9896 C2.9665,20.7376 3.8945,20.3596 4.8195,19.9826 C5.8765,19.5516 6.9715,19.1056 7.4225,18.8826 L7.5525,18.8196 C8.5945,18.3066 9.2535,17.9296 9.2855,16.9126 C8.7245,16.3456 6.8085,14.3026 6.2235,12.3016 C5.5365,9.9496 5.3915,4.4846 8.1375,1.9026 C9.8085,0.3296 11.7825,-0.0004 13.1445,-0.0004 C13.9335,-0.0004 14.5615,0.1086 14.9505,0.1986 C16.1155,0.4696 17.0605,1.0706 17.5785,1.8626 C17.7505,1.9286 18.0035,2.0426 18.2085,2.2026 C20.7665,4.2036 21.1715,10.7386 19.5165,13.6586 C18.6655,15.1636 17.2735,16.4886 16.7855,16.9296 C16.8145,18.0156 17.4705,18.4136 18.4475,18.8796 C18.8995,19.0956 19.9745,19.5136 21.0145,19.9186 C22.0615,20.3266 23.1435,20.7466 23.6675,20.9926 C24.8205,21.5306 25.8875,22.9036 26.0025,23.6806 L26.0695,24.1266 L25.6335,24.2396 C25.5755,24.2536 19.7505,25.7346 13.2495,25.7346" id="Fill-1" fill="#407FA0" mask="url(#mask-2)"></path>
            </g>
        </g>
    </g>
</svg>