<?xml version="1.0" encoding="UTF-8" standalone="no"?>
<svg width="29px" height="25px" viewBox="0 0 29 25" version="1.1" xmlns="http://www.w3.org/2000/svg" xmlns:xlink="http://www.w3.org/1999/xlink">
    <!-- Generator: Sketch 40.2 (33826) - http://www.bohemiancoding.com/sketch -->
    <title>wallet</title>
    <desc>Created with Sketch.</desc>
    <defs>
        <polygon id="path-1" points="19.086 13.1318 19.086 0.828490137 0.7647 0.828490137 0.7647 13.1318 19.086 13.1318"></polygon>
        <polygon id="path-3" points="10.6968 21 0 21 0 0.095 21.3936 0.095 21.3936 21"></polygon>
    </defs>
    <g id="Page-1" stroke="none" stroke-width="1" fill="none" fill-rule="evenodd">
        <g id="A4-Copy" transform="translate(-374.000000, -457.000000)">
            <g id="wallet" transform="translate(374.000000, 457.000000)">
                <path d="M17.075,16.2416 C16.534,16.2416 16.096,16.6796 16.096,17.2206 C16.096,17.7616 16.534,18.1996 17.075,18.1996 C17.616,18.1996 18.054,17.7616 18.054,17.2206 C18.054,16.6796 17.616,16.2416 17.075,16.2416" id="Fill-1" fill="#333332"></path>
                <g id="Group-5" transform="translate(9.000000, 2.004100)">
                    <mask id="mask-2" fill="white">
                        <use xlink:href="#path-1"></use>
                    </mask>
                    <g id="Clip-4"></g>
                    <path d="M19.0137,9.7998 L16.4437,1.8628 C16.1937,1.0938 15.3257,0.6488 14.5537,0.8978 L1.7677,5.0368 C1.2317,5.2108 0.8677,5.6608 0.7647,6.1788 L1.8307,6.1788 C1.8907,6.0938 1.9707,6.0228 2.0767,5.9878 L14.8617,1.8488 C14.9107,1.8328 14.9617,1.8248 15.0137,1.8248 C15.2297,1.8248 15.4257,1.9668 15.4927,2.1708 L15.9187,3.4858 L7.5997,6.1788 L9.8937,6.1788 C10.6817,6.1788 11.4097,6.4308 12.0107,6.8518 L16.5347,5.3878 L18.0627,10.1078 C18.1477,10.3698 18.0027,10.6538 17.7407,10.7378 L13.5937,12.0808 L13.5937,13.1318 L18.0487,11.6898 C18.8347,11.4348 19.2677,10.5868 19.0137,9.7998" id="Fill-3" fill="#333332" mask="url(#mask-2)"></path>
                </g>
                <path d="M6.5022,8.1827 L7.5532,8.1827 L6.7782,5.7907 C6.6932,5.5277 6.8382,5.2447 7.1002,5.1597 L19.8872,1.0197 C19.9362,1.0037 19.9872,0.9967 20.0392,0.9967 C20.2542,0.9967 20.4512,1.1377 20.5162,1.3417 L20.8922,2.5017 L21.8432,2.1937 L21.4682,1.0347 C21.2202,0.2647 20.3522,-0.1783 19.5792,0.0687 L6.7922,4.2087 C6.0062,4.4627 5.5732,5.3107 5.8272,6.0977 L6.5022,8.1827 Z" id="Fill-6" fill="#333332"></path>
                <g id="Group-10" transform="translate(0.000000, 4.004100)">
                    <mask id="mask-4" fill="white">
                        <use xlink:href="#path-3"></use>
                    </mask>
                    <g id="Clip-9"></g>
                    <path d="M20.3936,18.5 C20.3936,19.327 19.7206,20 18.8936,20 L3.0506,20 L2.5036,20 C1.6766,20 1.0036,19.327 1.0036,18.5 L1.0036,9.062 L0.9996,8.562 L0.9996,5.533 C1.1366,5.66 1.2836,5.775 1.4406,5.875 C1.9316,6.193 2.5146,6.379 3.1416,6.379 L18.8936,6.379 C19.7206,6.379 20.3936,7.052 20.3936,7.879 L20.3936,18.5 Z M18.8936,5.379 L3.1416,5.379 C3.1106,5.379 3.0816,5.371 3.0496,5.37 C2.4826,5.345 1.9716,5.1 1.6016,4.719 C1.5906,4.707 1.5816,4.693 1.5706,4.681 C1.4916,4.596 1.4176,4.507 1.3536,4.41 C1.3296,4.374 1.3126,4.332 1.2906,4.294 C1.2456,4.216 1.1996,4.139 1.1646,4.055 C1.1356,3.987 1.1196,3.914 1.0986,3.843 C1.0806,3.782 1.0556,3.724 1.0426,3.661 C1.0156,3.524 0.9996,3.382 0.9996,3.236 C0.9996,2.056 1.9606,1.095 3.1416,1.095 L4.6216,1.095 C4.6956,0.734 4.8396,0.395 5.0476,0.095 L3.1416,0.095 C1.4096,0.095 -0.0004,1.504 -0.0004,3.236 L0.0036,18.5 C0.0036,19.879 1.1246,21 2.5036,21 L3.0506,21 L18.8936,21 C20.2726,21 21.3936,19.879 21.3936,18.5 L21.3936,7.879 C21.3936,6.5 20.2726,5.379 18.8936,5.379 L18.8936,5.379 Z" id="Fill-8" fill="#333332" mask="url(#mask-4)"></path>
                </g>
            </g>
        </g>
    </g>
</svg>